<svg xmlns="http://www.w3.org/2000/svg" xmlns:xlink="http://www.w3.org/1999/xlink" width="500" zoomAndPan="magnify" viewBox="0 0 375 374.999991" height="500" preserveAspectRatio="xMidYMid meet" version="1.0"><defs><g/><clipPath id="ba18e42e5b"><path d="M 57.351562 172.328125 L 316.363281 172.328125 L 316.363281 202.378906 L 57.351562 202.378906 Z M 57.351562 172.328125 " clip-rule="nonzero"/></clipPath></defs><g fill="#000000" fill-opacity="1"><g transform="translate(193.415442, 263.977484)"><g><path d="M 5.5 -4 L 5.5 0 L 61 0 L 61 -4 L 31.5 -4 L 47.25 -52.25 L 97.5 -52.25 L 113.75 -4 L 88 -4 L 88 0 L 161.25 0 L 161.25 -4 L 139.5 -4 L 84.75 -170.25 L 81.75 -170.25 L 27 -4 Z M 72.25 -127.75 L 96.25 -56.25 L 48.75 -56.25 Z M 72.25 -127.75 "/></g></g></g><g fill="#000000" fill-opacity="1"><g transform="translate(49.29189, 263.977484)"><g><path d="M 75.5 -168 L 8.25 -168 L 8.25 -164 L 29.75 -164 L 29.75 -4 L 8.25 -4 L 8.25 0 L 75.5 0 L 75.5 -4 L 54 -4 L 54 -87.25 L 120.25 -87.25 L 120.25 -4 L 98.75 -4 L 98.75 0 L 166 0 L 166 -4 L 144.5 -4 L 144.5 -164 L 166 -164 L 166 -168 L 98.75 -168 L 98.75 -164 L 120.25 -164 L 120.25 -91.5 L 54 -91.5 L 54 -164 L 75.5 -164 Z M 75.5 -168 "/></g></g></g><g clip-path="url(#ba18e42e5b)"><path fill="#fafafa" d="M 57.351562 172.328125 L 316.421875 172.328125 L 316.421875 202.378906 L 57.351562 202.378906 Z M 57.351562 172.328125 " fill-opacity="1" fill-rule="nonzero"/></g><g fill="#000000" fill-opacity="1"><g transform="translate(91.488983, 195.919792)"><g><path d="M 18.4375 -17.8125 L 18.4375 0 L 14.328125 0 L 14.328125 -7.296875 L 6.234375 -7.296875 L 6.234375 0 L 2.109375 0 L 2.109375 -17.8125 L 6.234375 -17.8125 L 6.234375 -10.78125 L 14.328125 -10.78125 L 14.328125 -17.8125 Z M 18.4375 -17.8125 "/></g></g></g><g fill="#000000" fill-opacity="1"><g transform="translate(120.84096, 195.919792)"><g><path d="M 15.90625 -3.3125 L 15.90625 0 L 2.109375 0 L 2.109375 -17.8125 L 15.5625 -17.8125 L 15.5625 -14.5 L 6.203125 -14.5 L 6.203125 -10.640625 L 14.46875 -10.640625 L 14.46875 -7.421875 L 6.203125 -7.421875 L 6.203125 -3.3125 Z M 15.90625 -3.3125 "/></g></g></g><g fill="#000000" fill-opacity="1"><g transform="translate(146.709068, 195.919792)"><g><path d="M 2.109375 -17.8125 L 6.234375 -17.8125 L 6.234375 -3.359375 L 15.15625 -3.359375 L 15.15625 0 L 2.109375 0 Z M 2.109375 -17.8125 "/></g></g></g><g fill="#000000" fill-opacity="1"><g transform="translate(170.873393, 195.919792)"><g><path d="M 13.84375 -3.8125 L 5.578125 -3.8125 L 4 0 L -0.234375 0 L 7.703125 -17.8125 L 11.78125 -17.8125 L 19.734375 0 L 15.421875 0 Z M 12.546875 -6.9375 L 9.71875 -13.765625 L 6.890625 -6.9375 Z M 12.546875 -6.9375 "/></g></g></g><g fill="#000000" fill-opacity="1"><g transform="translate(199.157326, 195.919792)"><g><path d="M 2.109375 -17.8125 L 10.203125 -17.8125 C 12.128906 -17.8125 13.832031 -17.441406 15.3125 -16.703125 C 16.800781 -15.960938 17.957031 -14.921875 18.78125 -13.578125 C 19.601562 -12.242188 20.015625 -10.6875 20.015625 -8.90625 C 20.015625 -7.125 19.601562 -5.5625 18.78125 -4.21875 C 17.957031 -2.882812 16.800781 -1.847656 15.3125 -1.109375 C 13.832031 -0.367188 12.128906 0 10.203125 0 L 2.109375 0 Z M 10 -3.390625 C 11.78125 -3.390625 13.195312 -3.882812 14.25 -4.875 C 15.3125 -5.863281 15.84375 -7.207031 15.84375 -8.90625 C 15.84375 -10.601562 15.3125 -11.945312 14.25 -12.9375 C 13.195312 -13.925781 11.78125 -14.421875 10 -14.421875 L 6.234375 -14.421875 L 6.234375 -3.390625 Z M 10 -3.390625 "/></g></g></g><g fill="#000000" fill-opacity="1"><g transform="translate(228.967043, 195.919792)"><g><path d="M 2.109375 -17.8125 L 6.234375 -17.8125 L 6.234375 0 L 2.109375 0 Z M 2.109375 -17.8125 "/></g></g></g><g fill="#000000" fill-opacity="1"><g transform="translate(246.112786, 195.919792)"><g><path d="M 19.234375 -17.8125 L 11.515625 0 L 7.453125 0 L -0.234375 -17.8125 L 4.21875 -17.8125 L 9.640625 -5.09375 L 15.140625 -17.8125 Z M 19.234375 -17.8125 "/></g></g></g><g fill="#000000" fill-opacity="1"><g transform="translate(273.888122, 195.919792)"><g><path d="M 13.84375 -3.8125 L 5.578125 -3.8125 L 4 0 L -0.234375 0 L 7.703125 -17.8125 L 11.78125 -17.8125 L 19.734375 0 L 15.421875 0 Z M 12.546875 -6.9375 L 9.71875 -13.765625 L 6.890625 -6.9375 Z M 12.546875 -6.9375 "/></g></g></g><g fill="#000000" fill-opacity="1"><g transform="translate(137.30998, 290.673907)"><g><path d="M 8.421875 -2.328125 L 3.390625 -2.328125 L 2.421875 0 L -0.140625 0 L 4.6875 -10.828125 L 7.15625 -10.828125 L 12 0 L 9.375 0 Z M 7.625 -4.21875 L 5.90625 -8.375 L 4.1875 -4.21875 Z M 7.625 -4.21875 "/></g></g></g><g fill="#000000" fill-opacity="1"><g transform="translate(159.932731, 290.673907)"><g><path d="M 8.59375 -5.578125 L 10.890625 -5.578125 L 10.890625 -1.1875 C 10.304688 -0.75 9.625 -0.410156 8.84375 -0.171875 C 8.070312 0.0664062 7.296875 0.1875 6.515625 0.1875 C 5.390625 0.1875 4.378906 -0.0507812 3.484375 -0.53125 C 2.585938 -1.007812 1.882812 -1.675781 1.375 -2.53125 C 0.863281 -3.382812 0.609375 -4.347656 0.609375 -5.421875 C 0.609375 -6.484375 0.863281 -7.441406 1.375 -8.296875 C 1.882812 -9.148438 2.59375 -9.816406 3.5 -10.296875 C 4.40625 -10.773438 5.425781 -11.015625 6.5625 -11.015625 C 7.507812 -11.015625 8.367188 -10.851562 9.140625 -10.53125 C 9.910156 -10.21875 10.5625 -9.753906 11.09375 -9.140625 L 9.484375 -7.65625 C 8.710938 -8.46875 7.78125 -8.875 6.6875 -8.875 C 5.988281 -8.875 5.367188 -8.726562 4.828125 -8.4375 C 4.296875 -8.15625 3.878906 -7.75 3.578125 -7.21875 C 3.285156 -6.695312 3.140625 -6.097656 3.140625 -5.421875 C 3.140625 -4.742188 3.285156 -4.140625 3.578125 -3.609375 C 3.878906 -3.085938 4.296875 -2.679688 4.828125 -2.390625 C 5.359375 -2.097656 5.96875 -1.953125 6.65625 -1.953125 C 7.375 -1.953125 8.019531 -2.101562 8.59375 -2.40625 Z M 8.59375 -5.578125 "/></g></g></g><g fill="#000000" fill-opacity="1"><g transform="translate(182.632764, 290.673907)"><g><path d="M 9.671875 -2.015625 L 9.671875 0 L 1.28125 0 L 1.28125 -10.828125 L 9.46875 -10.828125 L 9.46875 -8.8125 L 3.78125 -8.8125 L 3.78125 -6.46875 L 8.796875 -6.46875 L 8.796875 -4.515625 L 3.78125 -4.515625 L 3.78125 -2.015625 Z M 9.671875 -2.015625 "/></g></g></g><g fill="#000000" fill-opacity="1"><g transform="translate(203.787091, 290.673907)"><g><path d="M 11.21875 -10.828125 L 11.21875 0 L 9.15625 0 L 3.765625 -6.578125 L 3.765625 0 L 1.28125 0 L 1.28125 -10.828125 L 3.359375 -10.828125 L 8.734375 -4.25 L 8.734375 -10.828125 Z M 11.21875 -10.828125 "/></g></g></g><g fill="#000000" fill-opacity="1"><g transform="translate(227.059028, 290.673907)"><g><path d="M 6.46875 0.1875 C 5.363281 0.1875 4.363281 -0.0507812 3.46875 -0.53125 C 2.582031 -1.007812 1.882812 -1.675781 1.375 -2.53125 C 0.863281 -3.382812 0.609375 -4.347656 0.609375 -5.421875 C 0.609375 -6.484375 0.863281 -7.441406 1.375 -8.296875 C 1.882812 -9.148438 2.582031 -9.816406 3.46875 -10.296875 C 4.363281 -10.773438 5.367188 -11.015625 6.484375 -11.015625 C 7.421875 -11.015625 8.265625 -10.847656 9.015625 -10.515625 C 9.773438 -10.191406 10.414062 -9.71875 10.9375 -9.09375 L 9.328125 -7.609375 C 8.597656 -8.453125 7.691406 -8.875 6.609375 -8.875 C 5.929688 -8.875 5.328125 -8.726562 4.796875 -8.4375 C 4.273438 -8.144531 3.867188 -7.734375 3.578125 -7.203125 C 3.285156 -6.679688 3.140625 -6.085938 3.140625 -5.421875 C 3.140625 -4.742188 3.285156 -4.140625 3.578125 -3.609375 C 3.867188 -3.085938 4.273438 -2.679688 4.796875 -2.390625 C 5.328125 -2.097656 5.929688 -1.953125 6.609375 -1.953125 C 7.691406 -1.953125 8.597656 -2.378906 9.328125 -3.234375 L 10.9375 -1.75 C 10.414062 -1.113281 9.773438 -0.628906 9.015625 -0.296875 C 8.253906 0.0234375 7.40625 0.1875 6.46875 0.1875 Z M 6.46875 0.1875 "/></g></g></g><g fill="#000000" fill-opacity="1"><g transform="translate(249.17169, 290.673907)"><g><path d="M 6.484375 -3.84375 L 6.484375 0 L 3.96875 0 L 3.96875 -3.875 L -0.21875 -10.828125 L 2.4375 -10.828125 L 5.34375 -6.015625 L 8.234375 -10.828125 L 10.6875 -10.828125 Z M 6.484375 -3.84375 "/></g></g></g></svg>